{
  "accessors": [
    {
      "bufferView": 0,
      "componentType": 5125,
      "count": 23418,
      "type": "SCALAR"
    },
    {
      "bufferView": 1,
      "componentType": 5126,
      "count": 6830,
      "max": [
        1.0,
        0.791757702827454,
        1.0
      ],
      "min": [
        -1.0,
        -0.791757702827454,
        -1.0
      ],
      "type": "VEC3"
    },
    {
      "bufferView": 2,
      "componentType": 5126,
      "count": 6830,
      "type": "VEC3"
    },
    {
      "bufferView": 3,
      "componentType": 5126,
      "count": 6830,
      "type": "VEC2"
    }
  ],
  "asset": {
    "generator": "Substance Painter 2018.1.3",
    "version": "2.0"
  },
  "bufferViews": [
    {
      "buffer": 0,
      "byteLength": 93672,
      "target": 34963
    },
    {
      "buffer": 0,
      "byteLength": 81960,
      "byteOffset": 93672,
      "target": 34962
    },
    {
      "buffer": 0,
      "byteLength": 81960,
      "byteOffset": 175632,
      "target": 34962
    },
    {
      "buffer": 0,
      "byteLength": 54640,
      "byteOffset": 257592,
      "target": 34962
    }
  ],
  "buffers": [
    {
      "byteLength": 312232,
      "uri": "shader_d.bin"
    }
  ],
  "images": [
    {
      "uri": "shader3d_baseColor.png"
    },
    {
      "uri": "shader3d_occlusionRoughnessMetallic.png"
    },
    {
      "uri": "shader3d_normal.png"
    }
  ],
  "materials": [
    {
      "alphaMode": "OPAQUE",
      "name": "lambert2",
      "normalTexture": {
        "index": 2
      },
      "occlusionTexture": {
        "index": 1
      },
      "pbrMetallicRoughness": {
        "baseColorTexture": {
          "index": 0
        },
        "metallicRoughnessTexture": {
          "index": 1
        }
      }
    }
  ],
  "meshes": [
    {
      "name": "shader_low",
      "primitives": [
        {
          "attributes": {
            "NORMAL": 2,
            "POSITION": 1,
            "TEXCOORD_0": 3
          },
          "indices": 0,
          "material": 0,
          "mode": 4
        }
      ]
    }
  ],
  "nodes": [
    {
      "children": [
        1
      ],
      "name": "root",
      "scale": [
        1.60000097751617,
        1.60000097751617,
        1.60000097751617
      ],
      "translation": [
        0.0,
        1.26681303977966,
        0.0
      ]
    },
    {
      "children": [
        2
      ],
      "name": "shader_low"
    },
    {
      "mesh": 0,
      "name": "shader_low"
    }
  ],
  "samplers": [
    {
      "magFilter": 9729,
      "minFilter": 9985,
      "wrapS": 10497,
      "wrapT": 10497
    }
  ],
  "scene": 0,
  "scenes": [
    {
      "name": "Scene",
      "nodes": [
        0
      ]
    }
  ],
  "textures": [
    {
      "sampler": 0,
      "source": 0
    },
    {
      "sampler": 0,
      "source": 1
    },
    {
      "sampler": 0,
      "source": 2
    }
  ]
}
